<?xml version="1.0" standalone="no"?>
<!DOCTYPE svg PUBLIC "-//W3C//DTD SVG 20010904//EN"
 "http://www.w3.org/TR/2001/REC-SVG-20010904/DTD/svg10.dtd">
<svg version="1.0" xmlns="http://www.w3.org/2000/svg"
 width="97.000000pt" height="24.000000pt" viewBox="0 0 97.000000 24.000000"
 preserveAspectRatio="xMidYMid meet">

<g transform="translate(0.000000,24.000000) scale(0.100000,-0.100000)"
fill="#000000" stroke="none">
<path d="M0 120 l0 -120 30 0 c20 0 30 5 30 15 0 8 -7 15 -15 15 -12 0 -15 17
-15 90 0 73 3 90 15 90 8 0 15 7 15 15 0 10 -10 15 -30 15 l-30 0 0 -120z"/>
<path d="M580 225 c0 -8 7 -15 15 -15 12 0 15 -17 15 -90 0 -73 -3 -90 -15
-90 -8 0 -15 -7 -15 -15 0 -10 10 -15 30 -15 l30 0 0 120 0 120 -30 0 c-20 0
-30 -5 -30 -15z"/>
<path d="M100 180 c0 -11 -7 -20 -15 -20 -8 0 -15 -7 -15 -15 0 -8 7 -15 15
-15 11 0 15 -12 15 -45 l0 -45 40 0 c22 0 40 5 40 10 0 6 -11 10 -25 10 -22 0
-25 4 -25 35 0 31 3 35 25 35 16 0 25 6 25 15 0 9 -9 15 -25 15 -18 0 -25 5
-25 20 0 11 -7 20 -15 20 -8 0 -15 -9 -15 -20z"/>
<path d="M240 190 c0 -5 7 -10 15 -10 8 0 15 5 15 10 0 6 -7 10 -15 10 -8 0
-15 -4 -15 -10z"/>
<path d="M330 190 c0 -5 7 -10 15 -10 12 0 15 -13 15 -60 0 -47 -3 -60 -15
-60 -8 0 -15 -4 -15 -10 0 -5 18 -10 40 -10 22 0 40 5 40 10 0 6 -4 10 -10 10
-6 0 -10 30 -10 70 l0 70 -30 0 c-16 0 -30 -4 -30 -10z"/>
<path d="M220 145 c0 -8 5 -15 10 -15 6 0 10 -16 10 -35 0 -19 -4 -35 -10 -35
-5 0 -10 -4 -10 -10 0 -5 18 -10 40 -10 22 0 40 5 40 10 0 6 -7 10 -15 10 -11
0 -15 12 -15 50 0 47 -2 50 -25 50 -16 0 -25 -6 -25 -15z"/>
<path d="M460 140 c-53 -53 13 -136 80 -100 28 15 16 31 -19 24 -16 -4 -32 -1
-35 5 -5 7 8 11 38 11 39 0 46 3 46 20 0 28 -35 60 -65 60 -14 0 -34 -9 -45
-20z m70 -20 c0 -5 -14 -10 -31 -10 -17 0 -28 4 -24 10 3 6 17 10 31 10 13 0
24 -4 24 -10z"/>
</g>
</svg>
