<svg width="108" height="101" viewBox="0 0 108 101" fill="none" xmlns="http://www.w3.org/2000/svg">
<path d="M0 0H24.9798V11.5975H11.6187V89.4025H24.9798V101H0V0ZM83.0165 11.5975H96.374V89.4025H83.0165V101H108V0H83.0165V11.5975ZM55.532 46.2769H76.6577V34.6788H55.532V14.6346H42.7392V34.6788H31.3387V46.2733H42.7392V73.2923C42.7391 75.0086 43.079 76.7082 43.7394 78.2938C44.3998 79.8795 45.3678 81.3203 46.588 82.5339C47.8083 83.7475 49.2569 84.7102 50.8513 85.367C52.4456 86.0238 54.1544 86.3619 55.8801 86.3618H76.6577V74.7673H55.532V46.2769Z" fill="#4C9DFF"/>
</svg>
